<svg width="391" height="436" viewBox="0 0 391 436" fill="none" xmlns="http://www.w3.org/2000/svg">
<path d="M197 435.2C157.8 435.2 123.4 426.2 93.8 408.2C64.2 389.8 41.2 364.4 24.8 332C8.4 299.2 0.200001 261.4 0.200001 218.6C0.200001 175.8 8.4 138 24.8 105.2C41.6 72.4 65.2 46.8 95.6 28.4C126.4 9.99999 162.6 0.799993 204.2 0.799993C251.4 0.799993 290.6 12.2 321.8 35C353.4 57.8 373.8 89.2 383 129.2H324.8C319.2 104 305.8 84 284.6 69.2C263.8 54.4 237 47 204.2 47C173.4 47 146.6 54 123.8 68C101 81.6 83.2 101.2 70.4 126.8C58 152.4 51.8 183 51.8 218.6C51.8 254.2 58 284.8 70.4 310.4C82.8 336 100 355.8 122 369.8C144 383.4 169.6 390.2 198.8 390.2C243.6 390.2 277.4 377.2 300.2 351.2C323 324.8 336 288.8 339.2 243.2H218V203.6H390.8V428H344.6L340.4 359C325.2 383.4 306.6 402.2 284.6 415.4C262.6 428.6 233.4 435.2 197 435.2Z" fill="#FFF0CA"/>
</svg>
